<svg width="393" height="196" viewBox="0 0 393 196" fill="none" xmlns="http://www.w3.org/2000/svg">
<path d="M64.23 76.15H42.95L39.03 87H32.31L49.95 38.49H57.3L74.87 87H68.15L64.23 76.15ZM62.41 70.97L53.59 46.33L44.77 70.97H62.41ZM88.928 54.87C90.048 52.6767 91.6346 50.9733 93.688 49.76C95.788 48.5467 98.3313 47.94 101.318 47.94V54.52H99.638C92.498 54.52 88.928 58.3933 88.928 66.14V87H82.558V48.64H88.928V54.87ZM116.441 53.89V76.5C116.441 78.3667 116.838 79.6967 117.631 80.49C118.425 81.2367 119.801 81.61 121.761 81.61H126.451V87H120.711C117.165 87 114.505 86.1833 112.731 84.55C110.958 82.9167 110.071 80.2333 110.071 76.5V53.89H105.101V48.64H110.071V38.98H116.441V48.64H126.451V53.89H116.441ZM137.459 42.41C136.246 42.41 135.219 41.99 134.379 41.15C133.539 40.31 133.119 39.2833 133.119 38.07C133.119 36.8567 133.539 35.83 134.379 34.99C135.219 34.15 136.246 33.73 137.459 33.73C138.626 33.73 139.606 34.15 140.399 34.99C141.239 35.83 141.659 36.8567 141.659 38.07C141.659 39.2833 141.239 40.31 140.399 41.15C139.606 41.99 138.626 42.41 137.459 42.41ZM140.539 48.64V87H134.169V48.64H140.539ZM164.976 87.63C162.036 87.63 159.399 87.14 157.066 86.16C154.733 85.1333 152.889 83.7333 151.536 81.96C150.183 80.14 149.436 78.0633 149.296 75.73H155.876C156.063 77.6433 156.949 79.2067 158.536 80.42C160.169 81.6333 162.293 82.24 164.906 82.24C167.333 82.24 169.246 81.7033 170.646 80.63C172.046 79.5567 172.746 78.2033 172.746 76.57C172.746 74.89 171.999 73.6533 170.506 72.86C169.013 72.02 166.703 71.2033 163.576 70.41C160.729 69.6633 158.396 68.9167 156.576 68.17C154.803 67.3767 153.263 66.2333 151.956 64.74C150.696 63.2 150.066 61.1933 150.066 58.72C150.066 56.76 150.649 54.9633 151.816 53.33C152.983 51.6967 154.639 50.4133 156.786 49.48C158.933 48.5 161.383 48.01 164.136 48.01C168.383 48.01 171.813 49.0833 174.426 51.23C177.039 53.3767 178.439 56.3167 178.626 60.05H172.256C172.116 58.0433 171.299 56.4333 169.806 55.22C168.359 54.0067 166.399 53.4 163.926 53.4C161.639 53.4 159.819 53.89 158.466 54.87C157.113 55.85 156.436 57.1333 156.436 58.72C156.436 59.98 156.833 61.03 157.626 61.87C158.466 62.6633 159.493 63.3167 160.706 63.83C161.966 64.2967 163.693 64.8333 165.886 65.44C168.639 66.1867 170.879 66.9333 172.606 67.68C174.333 68.38 175.803 69.4533 177.016 70.9C178.276 72.3467 178.929 74.2367 178.976 76.57C178.976 78.67 178.393 80.56 177.226 82.24C176.059 83.92 174.403 85.25 172.256 86.23C170.156 87.1633 167.729 87.63 164.976 87.63ZM195.738 53.89V76.5C195.738 78.3667 196.135 79.6967 196.928 80.49C197.721 81.2367 199.098 81.61 201.058 81.61H205.748V87H200.008C196.461 87 193.801 86.1833 192.028 84.55C190.255 82.9167 189.368 80.2333 189.368 76.5V53.89H184.398V48.64H189.368V38.98H195.738V48.64H205.748V53.89H195.738ZM219.836 54.87C220.956 52.6767 222.543 50.9733 224.596 49.76C226.696 48.5467 229.24 47.94 232.226 47.94V54.52H230.546C223.406 54.52 219.836 58.3933 219.836 66.14V87H213.466V48.64H219.836V54.87ZM272.619 48.64L249.519 105.06H242.939L250.499 86.58L235.029 48.64H242.099L254.139 79.72L266.039 48.64H272.619Z" fill="white"/>
<path d="M190.35 118.66C194.457 118.66 197.7 119.757 200.08 121.95C202.46 124.143 203.65 127.247 203.65 131.26C203.65 132.753 203.533 134.083 203.3 135.25L199.24 158H189.51L193.29 136.58C193.43 135.74 193.5 134.923 193.5 134.13C193.5 131.89 192.87 130.187 191.61 129.02C190.397 127.807 188.647 127.2 186.36 127.2C183.653 127.2 181.367 128.017 179.5 129.65C177.633 131.237 176.467 133.547 176 136.58V136.51L172.15 158H162.42L166.2 136.58C166.34 135.74 166.41 134.947 166.41 134.2C166.41 131.913 165.78 130.187 164.52 129.02C163.26 127.807 161.487 127.2 159.2 127.2C156.633 127.2 154.417 127.97 152.55 129.51C150.73 131.003 149.54 133.15 148.98 135.95L145.06 158H135.19L142.05 119.22H151.92L151.08 123.84C152.62 122.253 154.463 120.993 156.61 120.06C158.757 119.127 161.02 118.66 163.4 118.66C166.433 118.66 169.023 119.313 171.17 120.62C173.317 121.88 174.833 123.7 175.72 126.08C177.353 123.84 179.477 122.043 182.09 120.69C184.75 119.337 187.503 118.66 190.35 118.66ZM232.48 118.59C237.426 118.59 241.346 119.967 244.24 122.72C247.133 125.427 248.58 129.09 248.58 133.71C248.58 135.203 248.463 136.533 248.23 137.7C247.95 139.1 247.646 140.313 247.32 141.34H218.97C218.923 141.667 218.9 142.133 218.9 142.74C218.9 145.167 219.6 147.08 221 148.48C222.446 149.833 224.336 150.51 226.67 150.51C228.63 150.51 230.31 150.09 231.71 149.25C233.156 148.363 234.323 147.22 235.21 145.82H245.78C244.053 149.553 241.37 152.633 237.73 155.06C234.136 157.44 230.053 158.63 225.48 158.63C220.533 158.63 216.566 157.23 213.58 154.43C210.593 151.63 209.1 147.827 209.1 143.02C209.1 141.62 209.24 140.15 209.52 138.61C210.22 134.597 211.643 131.073 213.79 128.04C215.983 125.007 218.69 122.673 221.91 121.04C225.13 119.407 228.653 118.59 232.48 118.59ZM238.5 135.39C238.593 134.643 238.64 134.107 238.64 133.78C238.64 131.54 237.916 129.79 236.47 128.53C235.023 127.27 233.133 126.64 230.8 126.64C228.326 126.64 226.11 127.433 224.15 129.02C222.19 130.56 220.813 132.683 220.02 135.39H238.5ZM252.723 138.47C253.423 134.55 254.799 131.073 256.853 128.04C258.953 125.007 261.496 122.673 264.483 121.04C267.516 119.407 270.689 118.59 274.003 118.59C276.523 118.59 278.833 119.15 280.933 120.27C283.033 121.343 284.596 122.79 285.623 124.61L288.913 106.2H298.783L289.613 158H279.743L280.793 152.26C279.253 154.173 277.269 155.713 274.843 156.88C272.463 158.047 269.826 158.63 266.933 158.63C264.086 158.63 261.543 158 259.303 156.74C257.109 155.433 255.383 153.613 254.123 151.28C252.909 148.9 252.303 146.147 252.303 143.02C252.303 141.573 252.443 140.057 252.723 138.47ZM283.173 138.61C283.359 137.397 283.453 136.51 283.453 135.95C283.453 133.197 282.636 131.05 281.003 129.51C279.416 127.97 277.409 127.2 274.983 127.2C273.163 127.2 271.389 127.643 269.663 128.53C267.983 129.417 266.513 130.723 265.253 132.45C263.993 134.13 263.153 136.137 262.733 138.47C262.593 139.357 262.523 140.197 262.523 140.99C262.523 143.79 263.316 146.007 264.903 147.64C266.489 149.227 268.496 150.02 270.923 150.02C272.743 150.02 274.516 149.577 276.243 148.69C277.969 147.757 279.439 146.427 280.653 144.7C281.913 142.973 282.753 140.943 283.173 138.61ZM311.854 114.6C310.314 114.6 309.077 114.157 308.144 113.27C307.211 112.383 306.744 111.263 306.744 109.91C306.744 108.043 307.444 106.457 308.844 105.15C310.291 103.797 311.971 103.12 313.884 103.12C315.377 103.12 316.591 103.563 317.524 104.45C318.457 105.337 318.924 106.457 318.924 107.81C318.924 109.677 318.224 111.287 316.824 112.64C315.424 113.947 313.767 114.6 311.854 114.6ZM315.914 119.22L309.054 158H299.184L306.044 119.22H315.914ZM319.647 138.47C320.347 134.55 321.723 131.073 323.777 128.04C325.877 125.007 328.42 122.673 331.407 121.04C334.393 119.407 337.543 118.59 340.857 118.59C343.75 118.59 346.177 119.173 348.137 120.34C350.143 121.507 351.613 122.977 352.547 124.75L353.527 119.22H363.397L356.537 158H346.667L347.717 152.33C346.177 154.15 344.17 155.667 341.697 156.88C339.27 158.047 336.61 158.63 333.717 158.63C330.87 158.63 328.35 158 326.157 156.74C323.963 155.433 322.26 153.613 321.047 151.28C319.833 148.9 319.227 146.147 319.227 143.02C319.227 141.573 319.367 140.057 319.647 138.47ZM350.097 138.61C350.283 137.397 350.377 136.51 350.377 135.95C350.377 133.197 349.56 131.05 347.927 129.51C346.34 127.97 344.333 127.2 341.907 127.2C340.087 127.2 338.313 127.643 336.587 128.53C334.907 129.417 333.437 130.723 332.177 132.45C330.917 134.13 330.077 136.137 329.657 138.47C329.517 139.357 329.447 140.197 329.447 140.99C329.447 143.79 330.24 146.007 331.827 147.64C333.413 149.227 335.42 150.02 337.847 150.02C339.667 150.02 341.44 149.577 343.167 148.69C344.893 147.757 346.363 146.427 347.577 144.7C348.837 142.973 349.677 140.943 350.097 138.61Z" fill="url(#paint0_linear_108_865)"/>
<defs>
<linearGradient id="paint0_linear_108_865" x1="134" y1="158.119" x2="365.003" y2="120.172" gradientUnits="userSpaceOnUse">
<stop stop-color="#CE204F"/>
<stop offset="1" stop-color="#F4481D"/>
</linearGradient>
</defs>
</svg>
